<svg id="Layer_1" data-name="Layer 1" xmlns="http://www.w3.org/2000/svg" viewBox="0 0 200 200"><defs><style>.cls-1{fill:#0e13a2;}.cls-2{fill:#ee373d;}</style></defs><polygon class="cls-1" points="38.23 93.12 38.23 94.71 41.05 94.71 41.05 107.44 42.64 107.44 42.64 94.71 45.46 94.71 45.46 93.12 38.23 93.12"/><path class="cls-1" d="M59.34,97.05a7.23,7.23,0,0,0-11.83-2.41,7.66,7.66,0,0,0-1.67,2.42,7.29,7.29,0,0,0-.57,2.85,7.44,7.44,0,0,0,2.09,5.36,7,7,0,0,0,5.18,2.17,7.4,7.4,0,0,0,3-.61A7.3,7.3,0,0,0,58,105a7.19,7.19,0,0,0,1.41-2.31,7.91,7.91,0,0,0,.48-2.8A7.55,7.55,0,0,0,59.34,97.05Zm-1.08,2.84a6,6,0,0,1-1.63,4.28,5.28,5.28,0,0,1-4,1.73,5.45,5.45,0,0,1-4.07-1.71,6,6,0,0,1-1.65-4.26,5.79,5.79,0,0,1,.57-2.48,6.08,6.08,0,0,1,1.56-2,5.38,5.38,0,0,1,3.49-1.29,5.45,5.45,0,0,1,4,1.71A5.61,5.61,0,0,1,58.26,99.89Z"/><path class="cls-1" d="M69.05,92.82v8.74a5.9,5.9,0,0,1-.75,3.32A2.61,2.61,0,0,1,66,105.93a3,3,0,0,1-1.6-.44,2.76,2.76,0,0,1-1.07-1.22,2.84,2.84,0,0,1-.27-.88,11.32,11.32,0,0,1-.08-1.54v-9H61.4v9.08a6.47,6.47,0,0,0,1.14,4.19,4.46,4.46,0,0,0,3.57,1.35,4.13,4.13,0,0,0,3.39-1.38,6.56,6.56,0,0,0,1.11-4.16V92.82Z"/><path class="cls-1" d="M78.5,101.91a3.51,3.51,0,0,0,2.35-1.31,4.45,4.45,0,0,0,1-2.89,4.8,4.8,0,0,0-.5-2.14A4.14,4.14,0,0,0,80,94a4,4,0,0,0-1.41-.64,8.64,8.64,0,0,0-2-.2H72.64v14.32h1.57V94.71h1.94a9.54,9.54,0,0,1,2.07.15,2.41,2.41,0,0,1,1,.52,3,3,0,0,1,.74,1,3.49,3.49,0,0,1,.25,1.32,2.6,2.6,0,0,1-.81,2,3,3,0,0,1-2.11.75H75.74l4.31,7h1.88Z"/><path class="cls-1" d="M91.54,101A3.71,3.71,0,0,0,90,99.72a2.92,2.92,0,0,0,1-1.06,3.47,3.47,0,0,0,.39-1.7,3.53,3.53,0,0,0-1.16-2.91,5.74,5.74,0,0,0-3.58-.93H83.88v14.32H87.1a5.83,5.83,0,0,0,3.8-1,4,4,0,0,0,1.23-3.24A3.8,3.8,0,0,0,91.54,101ZM89,98.67a5.22,5.22,0,0,1-2.82.55h-.73V94.67H86.5a4.4,4.4,0,0,1,2.48.54,1.9,1.9,0,0,1,.76,1.69A2,2,0,0,1,89,98.67Zm-3.55,2.1h1.85a3.93,3.93,0,0,1,2.46.64,2.36,2.36,0,0,1,.79,1.94,2.29,2.29,0,0,1-.78,1.91,4,4,0,0,1-2.47.63H85.41Z"/><rect class="cls-1" x="93.96" y="93.12" width="1.59" height="14.32"/><polygon class="cls-1" points="107.19 93.12 107.35 105.3 99.79 93.17 99.76 93.12 97.94 93.12 97.94 107.44 99.51 107.44 99.35 95.25 106.91 107.39 106.94 107.44 108.77 107.44 108.77 93.12 107.19 93.12"/><path class="cls-2" d="M142.6,90.41H137a.31.31,0,0,0-.3.3v2.74h6.25V90.71A.3.3,0,0,0,142.6,90.41Z"/><path class="cls-2" d="M139.78,79.6a15.9,15.9,0,0,0-12.13,26.21V96.39a2.94,2.94,0,0,1,2.94-2.94h4.33V90.71a2,2,0,0,1,2-2h5.65a2,2,0,0,1,2,2v2.74H149a2.94,2.94,0,0,1,2.93,2.94v9.42A15.9,15.9,0,0,0,139.78,79.6Z"/><path class="cls-2" d="M139.78,73.5a22,22,0,0,0-21.16,28,16.32,16.32,0,0,0,1.28,3.4c4.51,8.26,19.88,21.59,19.88,21.59s15.36-13.33,19.87-21.59a16.32,16.32,0,0,0,1.28-3.4,22,22,0,0,0-21.15-28ZM152.25,108a18.45,18.45,0,0,1-2.08,1.78V96.39a1.21,1.21,0,0,0-1.2-1.21h-1.52v16.23a18.57,18.57,0,0,1-1.73.72V95.18H133.83v16.95a18.39,18.39,0,0,1-1.72-.72V95.18h-1.52a1.21,1.21,0,0,0-1.21,1.21v13.38A18.45,18.45,0,0,1,127.3,108a17.65,17.65,0,1,1,25,0Z"/></svg>