<svg id="Layer_1" data-name="Layer 1" xmlns="http://www.w3.org/2000/svg" viewBox="0 0 200 200"><defs><style>.cls-1{fill:#ee373d;}.cls-2{fill:#0e13a2;}</style></defs><path class="cls-1" d="M142.29,90.41h-5.65a.3.3,0,0,0-.3.3v2.74h6.25V90.71A.31.31,0,0,0,142.29,90.41Z"/><path class="cls-1" d="M139.46,79.6a15.9,15.9,0,0,0-12.12,26.21V96.39a2.94,2.94,0,0,1,2.93-2.94h4.34V90.71a2,2,0,0,1,2-2h5.65a2,2,0,0,1,2,2v2.74h4.33a2.94,2.94,0,0,1,2.94,2.94v9.42A15.9,15.9,0,0,0,139.46,79.6Z"/><path class="cls-1" d="M139.46,73.5a22,22,0,0,0-21.15,28,16.32,16.32,0,0,0,1.28,3.4c4.51,8.26,19.87,21.59,19.87,21.59s15.37-13.33,19.88-21.59a16.32,16.32,0,0,0,1.28-3.4,22,22,0,0,0-21.16-28ZM151.94,108a18.45,18.45,0,0,1-2.08,1.78V96.39a1.21,1.21,0,0,0-1.21-1.21h-1.52v16.23a18.39,18.39,0,0,1-1.72.72V95.18H133.52v16.95a18.57,18.57,0,0,1-1.73-.72V95.18h-1.52a1.21,1.21,0,0,0-1.2,1.21v13.38A18.45,18.45,0,0,1,127,108a17.64,17.64,0,1,1,25,0Z"/><path class="cls-1" d="M50.65,85.37A1.9,1.9,0,1,1,47.41,84a1.95,1.95,0,0,1,2.69,0A1.83,1.83,0,0,1,50.65,85.37Z"/><path class="cls-1" d="M60.52,113.37a1.81,1.81,0,0,1-.57,1.35,1.84,1.84,0,0,1-1.35.56,1.87,1.87,0,0,1-1.37-.57,1.87,1.87,0,0,1,0-2.71,1.87,1.87,0,0,1,1.37-.57,1.95,1.95,0,0,1,1.92,1.94Z"/><path class="cls-1" d="M64.68,113.37a1.8,1.8,0,0,1-.56,1.35,1.83,1.83,0,0,1-1.37.56,1.86,1.86,0,0,1-1.37-.56,1.81,1.81,0,0,1-.57-1.35,1.94,1.94,0,1,1,3.87,0Z"/><path class="cls-2" d="M75.91,103.92v-.83A32.23,32.23,0,0,0,73.5,91.72a1.52,1.52,0,0,0-1.4-1H72a1.51,1.51,0,0,0-1.24.66,1.48,1.48,0,0,0-.16,1.38,29.42,29.42,0,0,1,2.33,10.31V104a1.52,1.52,0,0,1-1.82,1.8H65.44a2,2,0,0,1-1.4-.4,1.81,1.81,0,0,1-.45-1.4V92.27a1.5,1.5,0,1,0-3,0V104a1.89,1.89,0,0,1-.41,1.39,2,2,0,0,1-1.41.41H54.66c-.39,0-1.28-.15-1.28-1.53v-12a1.5,1.5,0,0,0-3,0v16.79a4.13,4.13,0,0,1-.92,2.75,3.84,3.84,0,0,1-3.07,1.24,5.49,5.49,0,0,1-3.49-1.13,3.05,3.05,0,0,1-1.37-2.39v-.18a27.38,27.38,0,0,1,1.76-9.16c.44-1.23,1.23-3.1,2.35-5.57a1.51,1.51,0,0,0-1.37-2.13,1.52,1.52,0,0,0-1.41.87C40,99.6,38.54,105,38.54,109.4v.24a5.84,5.84,0,0,0,2,4.36,8.28,8.28,0,0,0,5.9,2.07,7.41,7.41,0,0,0,5-1.55,6.57,6.57,0,0,0,2-5.23v-.56l.5,0c.17,0,2.65,0,4.91,0a7,7,0,0,0,2.43-.36,2.35,2.35,0,0,1,1.75,0,6.91,6.91,0,0,0,2.45.37h5.67a5.91,5.91,0,0,0,3.37-.72C75.43,107.41,75.91,106,75.91,103.92Z"/><path class="cls-1" d="M71.63,113.37a1.91,1.91,0,0,1-1.93,1.91,1.92,1.92,0,1,1,0-3.83,1.91,1.91,0,0,1,1.93,1.92Z"/><path class="cls-2" d="M82.68,107a26.31,26.31,0,0,0,.39-5,72.19,72.19,0,0,0-.79-10,1.51,1.51,0,0,0-1.49-1.28,1.5,1.5,0,0,0-1.48,1.71,67.94,67.94,0,0,1,.79,9.63,22.93,22.93,0,0,1-.39,4.6,39.67,39.67,0,0,1-2.6,7.25c-.21.49-.44,1-.68,1.52a1.53,1.53,0,0,0,.1,1.44,1.54,1.54,0,0,0,2.68-.19A48.87,48.87,0,0,0,82.68,107Z"/><path class="cls-2" d="M108.57,103.92v-.83a32,32,0,0,0-2.42-11.37,1.5,1.5,0,0,0-1.4-1h-.11a1.5,1.5,0,0,0-1.24.66,1.43,1.43,0,0,0-.16,1.37,29.65,29.65,0,0,1,2.31,10.32V104a1.52,1.52,0,0,1-1.82,1.8H96.46l0-.47q.11-1.73.12-2.34c0-.32,0-.64,0-1a19.09,19.09,0,0,0-1.48-7.79c-1-2.21-2.19-3.33-3.6-3.33-2.15,0-3.86,1.43-5.09,4.27a14,14,0,0,0-1.32,5.45v.4c0,4.69,2.28,7.2,7,7.69l.53,0-.16.51c-.14.5-.32,1-.55,1.69l-.09.18c-.33.86-.73,1.8-1.16,2.8-.22.49-.44,1-.68,1.52a1.48,1.48,0,0,0,.1,1.44,1.5,1.5,0,0,0,1.26.69,1.53,1.53,0,0,0,1.42-.88c1-2.15,1.75-4.11,2.35-5.8l.06-.22c.17-.52.33-1,.5-1.58l.1-.32h7.94a6,6,0,0,0,3.4-.73C108.09,107.41,108.57,106,108.57,103.92Zm-15.1,1.54-.07.4-.4,0a5.68,5.68,0,0,1-3.78-1.44,5,5,0,0,1-1.11-3.5v-.36A11.65,11.65,0,0,1,88.74,97C89.38,95,90.33,94,91.54,94s2.16,1.08,2.16,9.08A13.63,13.63,0,0,1,93.47,105.46Z"/><path class="cls-2" d="M104.82,87.25a1.93,1.93,0,0,0,1.92-1.91,1.93,1.93,0,0,0-1.92-1.94,1.94,1.94,0,0,0-1.38.56,1.86,1.86,0,0,0-.58,1.38,1.82,1.82,0,0,0,.58,1.35A1.9,1.9,0,0,0,104.82,87.25Z"/><path class="cls-2" d="M100.66,87.25a1.84,1.84,0,0,0,1.36-.56,1.81,1.81,0,0,0,.57-1.35,1.93,1.93,0,1,0-1.93,1.91Z"/></svg>